<svg
  xmlns="http://www.w3.org/2000/svg"
  width="24"
  height="24"
  viewBox="0 0 24 24"
  fill="none"
>
  <path
    d="M20.25 6.75H17.1645C17.0104 6.74972 16.8601 6.70208 16.734 6.61354C16.6079 6.525 16.5121 6.39983 16.4595 6.255L16.0897 5.23425C15.9314 4.79972 15.6435 4.42431 15.2648 4.15884C14.8861 3.89337 14.435 3.75065 13.9725 3.75H10.0275C9.56527 3.75085 9.11444 3.89358 8.73593 4.15888C8.35743 4.42419 8.06948 4.79929 7.911 5.2335L7.54125 6.255C7.48866 6.39983 7.39282 6.525 7.26671 6.61354C7.14061 6.70208 6.99033 6.74972 6.83625 6.75H3.75C3.15345 6.7506 2.5815 6.98784 2.15967 7.40967C1.73784 7.8315 1.5006 8.40345 1.5 9V18C1.5006 18.5966 1.73784 19.1685 2.15967 19.5903C2.5815 20.0122 3.15345 20.2494 3.75 20.25H20.25C20.8466 20.2494 21.4185 20.0122 21.8403 19.5903C22.2622 19.1685 22.4994 18.5966 22.5 18V9C22.4994 8.40345 22.2622 7.8315 21.8403 7.40967C21.4185 6.98784 20.8466 6.7506 20.25 6.75ZM21 18C20.9998 18.1989 20.9207 18.3895 20.7801 18.5301C20.6395 18.6707 20.4489 18.7498 20.25 18.75H3.75C3.55115 18.7498 3.3605 18.6707 3.21989 18.5301C3.07928 18.3895 3.0002 18.1989 3 18V9C3.0002 8.80115 3.07928 8.6105 3.21989 8.46989C3.3605 8.32928 3.55115 8.2502 3.75 8.25H6.8355C7.2976 8.24899 7.74826 8.1062 8.12662 7.84091C8.50498 7.57561 8.79282 7.20059 8.95125 6.7665L9.321 5.745C9.37359 5.60017 9.46943 5.475 9.59554 5.38646C9.72164 5.29792 9.87192 5.25028 10.026 5.25H13.9733C14.1273 5.25028 14.2776 5.29792 14.4037 5.38646C14.5298 5.475 14.6257 5.60017 14.6782 5.745L15.0487 6.765C15.2068 7.19931 15.4944 7.57463 15.8726 7.84021C16.2509 8.10579 16.7016 8.24883 17.1637 8.25H20.25C20.4489 8.2502 20.6395 8.32928 20.7801 8.46989C20.9207 8.6105 20.9998 8.80115 21 9V18Z"
    fill="#000"
  />
  <path
    d="M16.4864 11.853C16.5179 12.0449 16.4737 12.2415 16.3631 12.4014C16.2525 12.5613 16.0841 12.672 15.8934 12.7102C15.7027 12.7483 15.5047 12.7109 15.3411 12.6058C15.1775 12.5008 15.061 12.3363 15.0164 12.147C14.9205 11.5507 14.6214 11.0059 14.1698 10.6048C13.7182 10.2038 13.1418 9.97124 12.5384 9.94654C11.9634 9.90867 11.3884 10.02 10.8691 10.2696C10.3498 10.5193 9.90384 10.8988 9.57436 11.3715L10.6161 11.481C10.814 11.5019 10.9955 11.6006 11.1207 11.7553C11.2459 11.91 11.3045 12.1081 11.2836 12.306C11.2627 12.504 11.1641 12.6855 11.0094 12.8107C10.8546 12.9358 10.6565 12.9944 10.4586 12.9735L8.31961 12.7485C8.13871 12.7295 7.9709 12.6454 7.84741 12.5118C7.72392 12.3783 7.65318 12.2044 7.64836 12.0225L7.58236 9.59554C7.58028 9.39877 7.65562 9.20908 7.79212 9.06735C7.92863 8.92562 8.11536 8.84321 8.31207 8.8379C8.50877 8.83259 8.69968 8.90479 8.84364 9.03894C8.98759 9.1731 9.07306 9.35845 9.08161 9.55504L9.08461 9.67129C9.56865 9.24237 10.1329 8.91367 10.7448 8.70422C11.3567 8.49477 12.004 8.40872 12.6494 8.45104C13.5806 8.49717 14.4682 8.85934 15.1659 9.47781C15.8636 10.0963 16.3296 10.9341 16.4871 11.853H16.4864ZM16.5014 16.7063C16.5068 16.9051 16.4331 17.0979 16.2964 17.2424C16.1596 17.3868 15.9712 17.471 15.7724 17.4765H15.7514C15.556 17.4764 15.3685 17.4001 15.2285 17.2638C15.0886 17.1275 15.0074 16.942 15.0021 16.7468L14.9991 16.626C14.1887 17.391 13.118 17.8196 12.0036 17.8253H11.9961C11.0221 17.798 10.0802 17.4708 9.29904 16.8882C8.51794 16.3056 7.9357 15.4961 7.63186 14.5703C7.56055 14.3845 7.56596 14.178 7.64691 13.9962C7.72785 13.8144 7.8777 13.6722 8.06349 13.6009C8.24927 13.5296 8.45577 13.535 8.63757 13.616C8.81936 13.6969 8.96155 13.8468 9.03286 14.0325C9.23219 14.6728 9.62367 15.2362 10.1542 15.6464C10.6847 16.0566 11.3285 16.2936 11.9984 16.3253H12.0036C12.5027 16.3144 12.9915 16.1815 13.4275 15.9384C13.8634 15.6952 14.2333 15.3492 14.5049 14.9303L13.4676 14.8215C13.3696 14.8112 13.2746 14.7817 13.188 14.7346C13.1014 14.6875 13.025 14.6239 12.963 14.5473C12.901 14.4707 12.8547 14.3826 12.8268 14.2881C12.7988 14.1936 12.7898 14.0945 12.8001 13.9965C12.8105 13.8985 12.84 13.8035 12.8871 13.717C12.9341 13.6304 12.9978 13.5539 13.0744 13.4919C13.151 13.4299 13.239 13.3837 13.3335 13.3557C13.428 13.3278 13.5271 13.3187 13.6251 13.329L15.7641 13.554C15.945 13.5731 16.1128 13.6572 16.2363 13.7908C16.3598 13.9243 16.4305 14.0982 16.4354 14.28L16.5014 16.7063Z"
    fill="#000"
  />
</svg>
