<svg
  width="28"
  height="28"
  viewBox="0 0 28 28"
  fill="none"
  xmlns="http://www.w3.org/2000/svg"
>
  <path
    d="M5 17V11H3V17H5ZM8 8H20V6H8V8ZM23 11V17H25V11H23ZM20 20H8V22H20V20ZM23 17C23 17.9711 22.9979 18.5988 22.9357 19.0613C22.8774 19.495 22.7832 19.631 22.7071 19.7071L24.1213 21.1213C24.631 20.6117 24.8297 19.9833 24.9179 19.3278C25.0021 18.701 25 17.9145 25 17H23ZM20 22C20.9145 22 21.701 22.0021 22.3278 21.9179C22.9833 21.8297 23.6117 21.631 24.1213 21.1213L22.7071 19.7071C22.631 19.7832 22.495 19.8774 22.0613 19.9357C21.5988 19.9979 20.9711 20 20 20V22ZM20 8C20.9711 8 21.5988 8.00212 22.0613 8.06431C22.495 8.12262 22.631 8.21677 22.7071 8.29289L24.1213 6.87868C23.6117 6.36902 22.9833 6.17027 22.3278 6.08214C21.701 5.99788 20.9145 6 20 6V8ZM25 11C25 10.0855 25.0021 9.29896 24.9179 8.67221C24.8297 8.01669 24.631 7.38834 24.1213 6.87868L22.7071 8.29289C22.7832 8.36902 22.8774 8.50496 22.9357 8.9387C22.9979 9.40121 23 10.0289 23 11H25ZM5 11C5 10.0289 5.00212 9.40121 5.06431 8.9387C5.12262 8.50496 5.21677 8.36902 5.29289 8.29289L3.87868 6.87868C3.36902 7.38834 3.17027 8.01669 3.08214 8.67221C2.99788 9.29896 3 10.0855 3 11H5ZM8 6C7.08546 6 6.29896 5.99788 5.67221 6.08214C5.01669 6.17027 4.38834 6.36902 3.87868 6.87868L5.29289 8.29289C5.36902 8.21677 5.50496 8.12262 5.9387 8.06431C6.40121 8.00212 7.02892 8 8 8V6ZM3 17C3 17.9145 2.99788 18.701 3.08214 19.3278C3.17027 19.9833 3.36902 20.6117 3.87868 21.1213L5.29289 19.7071C5.21677 19.631 5.12262 19.495 5.06431 19.0613C5.00212 18.5988 5 17.9711 5 17H3ZM8 20C7.02892 20 6.40121 19.9979 5.9387 19.9357C5.50496 19.8774 5.36902 19.7832 5.29289 19.7071L3.87868 21.1213C4.38834 21.631 5.01669 21.8297 5.67221 21.9179C6.29896 22.0021 7.08546 22 8 22V20ZM11 13C11 13.5523 10.5523 14 10 14V16C11.6569 16 13 14.6569 13 13H11ZM10 14C9.44772 14 9 13.5523 9 13H7C7 14.6569 8.34315 16 10 16V14ZM9 13C9 12.4477 9.44772 12 10 12V10C8.34315 10 7 11.3431 7 13H9ZM10 12C10.5523 12 11 12.4477 11 13H13C13 11.3431 11.6569 10 10 10V12ZM10 17C10.7974 17 11.6026 17.5079 12.1183 18.4717L13.8817 17.5283C13.1075 16.0811 11.707 15 10 15V17ZM7.88174 18.4717C8.39739 17.5079 9.20263 17 10 17V15C8.293 15 6.89252 16.0811 6.11826 17.5283L7.88174 18.4717ZM16 13H21V11H16V13ZM16 17H21V15H16V17Z"
    fill="#656D7A"
  />
</svg>
