<svg
  xmlns="http://www.w3.org/2000/svg"
  width="36"
  height="36"
  viewBox="0 0 36 36"
  fill="none"
>
  <path
    d="M30.3822 9.59332C30.3841 8.06779 29.1361 6.82928 27.594 6.82733C26.8526 6.82603 26.1414 7.11694 25.617 7.635L19.696 13.4924C18.6091 14.5741 18.6091 16.3215 19.696 17.4032C20.7894 18.4783 22.5552 18.4783 23.6486 17.4032L24.796 16.2681V25.9322C24.8006 27.4571 26.0493 28.6917 27.5907 28.6962C29.1322 28.6917 30.3808 27.4571 30.3854 25.9322L30.3822 9.59332Z"
    fill="url(#paint0_linear_7606_42181)"
  />
  <path
    fill-rule="evenodd"
    clip-rule="evenodd"
    d="M5.61133 9.5934C5.60805 8.06787 6.85541 6.82806 8.39751 6.82415C9.14093 6.8222 9.85475 7.11442 10.3804 7.63508L16.3014 13.4925C17.3889 14.5741 17.3889 16.3216 16.3014 17.4033C15.208 18.4784 13.4416 18.4784 12.3482 17.4033L11.2015 16.2689V25.9323C11.1969 27.4571 9.94817 28.6918 8.40673 28.6963C6.86528 28.6924 5.61594 27.4571 5.61133 25.9323V9.5934Z"
    fill="#FABF00"
  />
  <defs>
    <linearGradient
      id="paint0_linear_7606_42181"
      x1="24.6331"
      y1="26.3078"
      x2="24.6331"
      y2="1.39137"
      gradientUnits="userSpaceOnUse"
    >
      <stop stop-color="#007B82" />
      <stop offset="1" stop-color="#009C4D" />
    </linearGradient>
  </defs>
</svg>
