<svg
  width="28"
  height="28"
  viewBox="0 0 28 28"
  fill="none"
  xmlns="http://www.w3.org/2000/svg"
>
  <path
    d="M5 8C5 6.11438 5 5.17157 5.58579 4.58579C6.17157 4 7.11438 4 9 4H19C20.8856 4 21.8284 4 22.4142 4.58579C23 5.17157 23 6.11438 23 8V20C23 21.8856 23 22.8284 22.4142 23.4142C21.8284 24 20.8856 24 19 24H9C7.11438 24 6.17157 24 5.58579 23.4142C5 22.8284 5 21.8856 5 20V8Z"
    stroke="#768793"
    stroke-width="2"
    stroke-linejoin="round"
  />
  <path d="M9 4V24" stroke="#768793" stroke-width="2" stroke-linejoin="round" />
  <path
    d="M17.5 11.5C17.5 12.3284 16.8284 13 16 13V15C17.933 15 19.5 13.433 19.5 11.5H17.5ZM16 13C15.1716 13 14.5 12.3284 14.5 11.5H12.5C12.5 13.433 14.067 15 16 15V13ZM14.5 11.5C14.5 10.6716 15.1716 10 16 10V8C14.067 8 12.5 9.567 12.5 11.5H14.5ZM16 10C16.8284 10 17.5 10.6716 17.5 11.5H19.5C19.5 9.567 17.933 8 16 8V10Z"
    fill="#768793"
  />
  <path
    d="M12.8083 19.5888C13.5022 18.6361 14.6661 18 16 18V16C14.0217 16 12.2591 16.9459 11.1917 18.4112L12.8083 19.5888ZM16 18C17.3339 18 18.4978 18.6361 19.1917 19.5888L20.8083 18.4112C19.7409 16.9459 17.9783 16 16 16V18Z"
    fill="#768793"
  />
</svg>
