<svg
  xmlns="http://www.w3.org/2000/svg"
  width="21"
  height="22"
  viewBox="0 0 21 22"
  fill="none"
>
  <path
    d="M1.74254 17.9701L2.71268 17.7276L1.74254 17.9701ZM19.2575 17.9701L18.2873 17.7276V17.7276L19.2575 17.9701ZM18.1693 20.5764L17.5539 19.7882V19.7882L18.1693 20.5764ZM2.83073 20.5764L3.44614 19.7882H3.44614L2.83073 20.5764ZM13.3284 3.32843L12.6213 4.03554V4.03554L13.3284 3.32843ZM0.529858 17.2425L0.772393 18.2127L2.71268 17.7276L2.47014 16.7575L0.529858 17.2425ZM5.62311 22H15.3769V20H5.62311V22ZM20.2276 18.2127L20.4701 17.2425L18.5299 16.7575L18.2873 17.7276L20.2276 18.2127ZM15.3769 22C16.1025 22 16.735 22.0017 17.2508 21.94C17.7934 21.8751 18.3165 21.7302 18.7847 21.3646L17.5539 19.7882C17.4796 19.8462 17.3564 19.9131 17.0134 19.9541C16.6436 19.9983 16.1512 20 15.3769 20V22ZM18.2873 17.7276C18.0995 18.4788 17.9785 18.9561 17.8459 19.3041C17.7229 19.6269 17.6281 19.7302 17.5539 19.7882L18.7847 21.3646C19.2529 20.999 19.5203 20.5267 19.7149 20.0161C19.8998 19.5306 20.0516 18.9166 20.2276 18.2127L18.2873 17.7276ZM0.772393 18.2127C0.948378 18.9166 1.10017 19.5306 1.28512 20.0161C1.47965 20.5267 1.74708 20.999 2.21532 21.3646L3.44614 19.7882C3.37185 19.7302 3.27708 19.6269 3.15409 19.3041C3.02152 18.9561 2.90047 18.4788 2.71268 17.7276L0.772393 18.2127ZM5.62311 20C4.84881 20 4.35637 19.9983 3.98663 19.9541C3.64361 19.9131 3.52043 19.8462 3.44614 19.7882L2.21532 21.3646C2.68355 21.7302 3.20661 21.8751 3.74917 21.94C4.26501 22.0017 4.8975 22 5.62311 22V20ZM6.96447 2.62132L3.79289 5.7929L5.20711 7.20711L8.37868 4.03554L6.96447 2.62132ZM12.6213 4.03554L15.7929 7.20711L17.2071 5.7929L14.0355 2.62132L12.6213 4.03554ZM8.37868 4.03554C9.06534 3.34888 9.5107 2.90652 9.88171 2.62345C10.2296 2.35799 10.3923 2.32843 10.5 2.32843V0.32843C9.77923 0.32843 9.19438 0.632207 8.66855 1.03341C8.16578 1.417 7.61114 1.97465 6.96447 2.62132L8.37868 4.03554ZM14.0355 2.62132C13.3889 1.97465 12.8342 1.417 12.3315 1.03341C11.8056 0.632207 11.2208 0.32843 10.5 0.32843V2.32843C10.6077 2.32843 10.7704 2.35799 11.1183 2.62345C11.4893 2.90652 11.9347 3.34888 12.6213 4.03554L14.0355 2.62132ZM11.5 15.5V1.5H9.5V15.5H11.5Z"
    fill="#0E0F11"
  />
</svg>
